<svg width="367" height="367" viewBox="0 0 367 367" fill="none" xmlns="http://www.w3.org/2000/svg">
<g clip-path="url(#clip0)">
<path d="M152.379 139.726C108.333 139.726 71.1095 108.192 63.8702 64.7379L63.6664 63.5303C62.8714 58.7591 64.1162 54.1431 67.1735 50.5367C70.1264 47.0482 74.4507 45.0512 79.0396 45.0512H117.052V26.1152H79.0396C68.8752 26.1152 59.2849 30.5532 52.7263 38.2952C46.109 46.1108 43.2897 56.4411 44.9907 66.6541L45.1945 67.856C53.9596 120.477 99.0359 158.661 152.377 158.661C152.377 158.661 152.39 158.661 152.392 158.661V139.725C152.385 139.726 152.385 139.726 152.379 139.726Z" fill="#EBD55F"/>
<path d="M313.999 38.2952C307.441 30.5532 297.851 26.1152 287.686 26.1152H249.674V45.0505H287.686C292.275 45.0505 296.599 47.0475 299.552 50.5359C302.609 54.1417 303.854 58.7584 303.059 63.5296L302.855 64.7372C295.616 108.192 258.393 139.725 214.347 139.725C214.34 139.725 214.34 139.725 214.334 139.725V158.661C214.337 158.661 214.347 158.661 214.347 158.661C267.691 158.661 312.767 120.476 321.531 67.856L321.735 66.6541C323.437 56.4418 320.616 46.1108 313.999 38.2952Z" fill="#FFD66E"/>
<path d="M202.298 297.519H164.428L170.739 164.973H195.987L202.298 297.519Z" fill="#FFD66E"/>
<path d="M170.739 164.973L164.428 297.519H183.363V164.973H170.739Z" fill="#EBD55F"/>
<path d="M221.233 322.765H145.493V297.519C145.493 294.033 148.319 291.207 151.805 291.207H214.922C218.407 291.207 221.234 294.033 221.234 297.519V322.765H221.233Z" fill="#FCDD71"/>
<path d="M183.363 291.207H151.804C148.318 291.207 145.492 294.033 145.492 297.519V322.765H177.051V297.519C177.051 294.033 179.877 291.207 183.363 291.207Z" fill="#FFD66E"/>
<path d="M246.48 335.388H120.246L129.122 322.074C131.462 318.563 135.404 316.453 139.625 316.453H227.1C231.321 316.453 235.262 318.563 237.604 322.074L246.48 335.388Z" fill="#9B5A50"/>
<path d="M177.495 316.453H139.625C135.404 316.453 131.463 318.562 129.122 322.074L120.246 335.388H158.116L166.992 322.074C169.334 318.562 173.275 316.453 177.495 316.453Z" fill="#874641"/>
<path d="M246.48 366.947H120.246C116.76 366.947 113.934 364.12 113.934 360.635V335.388C113.934 331.903 116.76 329.076 120.246 329.076H246.48C249.965 329.076 252.792 331.903 252.792 335.388V360.635C252.792 364.12 249.965 366.947 246.48 366.947Z" fill="#AA6455"/>
<path d="M158.116 360.635V335.388C158.116 331.903 160.942 329.076 164.428 329.076H120.246C116.761 329.076 113.934 331.903 113.934 335.388V360.635C113.934 364.12 116.761 366.947 120.246 366.947H164.428C160.942 366.947 158.116 364.12 158.116 360.635Z" fill="#9B5A50"/>
<path d="M233.655 146.896L205.718 168.625C203.501 170.348 200.775 171.284 197.968 171.284H168.759C165.952 171.284 163.225 170.348 161.01 168.625L133.073 146.896C116.813 134.249 106.405 115.526 104.249 95.0394L94.999 7.18066H271.726L262.478 95.0394C260.322 115.526 249.914 134.25 233.655 146.896Z" fill="#FCDD71"/>
<path d="M182.452 168.625L169.481 146.896C161.931 134.249 157.1 115.526 156.098 95.038L151.804 7.18066H94.999L104.248 95.0394C106.404 115.526 116.811 134.25 133.071 146.897L161.008 168.626C163.225 170.35 165.951 171.286 168.758 171.286H186.049C184.747 171.285 183.481 170.349 182.452 168.625Z" fill="#FFD66E"/>
<path d="M271.727 13.4921H94.999C91.5134 13.4921 88.687 10.6658 88.687 7.18015C88.687 3.69455 91.5134 0.868164 94.999 0.868164H271.726C275.212 0.868164 278.038 3.69455 278.038 7.18015C278.038 10.6665 275.212 13.4921 271.727 13.4921Z" fill="#FCDD71"/>
<path d="M202.298 215.467H164.427C160.942 215.467 158.115 212.64 158.115 209.155V202.843C158.115 199.357 160.942 196.531 164.427 196.531H202.298C205.783 196.531 208.61 199.357 208.61 202.843V209.155C208.61 212.64 205.783 215.467 202.298 215.467Z" fill="#FCDD71"/>
<path d="M177.051 209.155V202.843C177.051 199.357 179.878 196.531 183.363 196.531H164.428C160.942 196.531 158.116 199.357 158.116 202.843V209.155C158.116 212.64 160.942 215.467 164.428 215.467H183.362C179.877 215.467 177.051 212.64 177.051 209.155Z" fill="#FFD66E"/>
<path d="M269.733 26.1155L271.062 13.4922H95.6632L96.9917 26.1155H269.733Z" fill="#FFD66E"/>
<path d="M152.113 13.4922H95.6632L96.9917 26.1155H152.73L152.113 13.4922Z" fill="#EBD55F"/>
<path d="M145.493 7.18064C145.493 3.69503 148.319 0.868652 151.805 0.868652H94.9997C91.5141 0.868652 88.6877 3.69503 88.6877 7.18064C88.6877 10.6662 91.5141 13.4926 94.9997 13.4926H151.805C148.318 13.4919 145.493 10.6662 145.493 7.18064Z" fill="#FFD66E"/>
<path d="M258.777 32.7989C249.358 30.651 241.944 23.2372 239.797 13.8186C239.635 13.1093 238.696 13.1093 238.534 13.8186C236.386 23.2372 228.972 30.6517 219.554 32.7989C218.844 32.9605 218.844 33.8993 219.554 34.0616C228.972 36.2094 236.387 43.6232 238.534 53.0419C238.695 53.7511 239.634 53.7511 239.797 53.0419C241.944 43.6232 249.358 36.2087 258.777 34.0616C259.486 33.9 259.486 32.9605 258.777 32.7989Z" fill="white"/>
<path d="M231.146 61.3314C224.515 59.614 219.293 54.3923 217.576 47.7615C217.403 47.0958 216.541 47.0958 216.369 47.7615C214.652 54.3923 209.43 59.614 202.799 61.3314C202.133 61.5044 202.133 62.366 202.799 62.5383C209.43 64.2557 214.652 69.4766 216.369 76.1082C216.542 76.7739 217.404 76.7739 217.576 76.1082C219.293 69.4759 224.515 64.2557 231.146 62.5383C231.811 62.3667 231.811 61.5044 231.146 61.3314Z" fill="white"/>
</g>
<defs>
<clipPath id="clip0">
<rect width="366.078" height="366.078" fill="white" transform="translate(0.323486 0.868652)"/>
</clipPath>
</defs>
</svg>
