<svg width="1954" height="2258" viewBox="0 0 1954 2258" fill="none" xmlns="http://www.w3.org/2000/svg">
<g id="Group 4">
<g id="logoWarTrade">
<path d="M855.494 5.04169C827.489 16.8787 831.528 37.484 866.265 58.3084C873.266 62.4732 883.23 71.2414 888.346 77.3791C896.963 88.5585 897.232 89.4353 896.963 112.013C896.963 130.426 894.809 142.483 886.73 172.294C873.805 218.985 863.303 258.661 862.226 264.36C861.687 266.771 859.264 275.32 857.11 283.65C854.686 291.761 849.839 309.516 846.069 323.107C842.569 336.478 833.952 368.92 827.22 394.787C812.948 448.272 801.369 492.113 787.905 544.941C786.29 550.86 783.866 559.847 782.52 564.67C781.173 569.492 778.75 578.26 777.403 584.398C776.057 590.317 773.634 599.304 772.287 604.126C770.941 608.949 767.979 620.786 765.286 630.431C762.862 640.076 748.591 691.37 733.78 744.417C706.583 841.524 705.237 846.347 699.313 868.267C695.274 883.831 691.234 898.079 688.542 907.724C687.464 911.889 685.041 920.876 683.156 927.452C681.271 934.028 678.848 943.016 677.77 947.181C676.693 951.346 673.193 963.621 670.231 974.581C667.269 985.322 658.652 1015.57 651.381 1041.44C643.841 1067.3 632.801 1107.2 626.877 1130.22C620.683 1153.01 614.49 1175.37 613.144 1179.54C610.451 1187.87 608.566 1194.88 580.561 1305.58C564.135 1370.68 558.48 1394.36 552.287 1421.76C551.479 1425.26 548.248 1432.5 545.286 1437.76C540.708 1445.65 538.554 1447.18 532.899 1446.53C521.589 1445.43 515.396 1431.4 502.47 1376.82C496.546 1352.05 494.123 1342.62 491.699 1335.17C487.391 1321.36 466.656 1247.05 462.079 1228.86C460.463 1222.72 458.039 1214.39 456.962 1210.23C455.616 1206.06 453.192 1196.63 451.577 1189.4C449.961 1182.17 447.538 1173.18 446.191 1169.67C445.114 1165.95 441.344 1153.23 438.113 1141.18C435.151 1129.12 431.919 1117.28 431.112 1114.87C430.573 1112.46 423.841 1086.81 416.301 1057.88C391.528 961.648 380.218 940.605 353.559 940.605C341.173 940.605 335.787 941.701 304.551 951.126C271.43 960.991 260.12 966.909 252.849 978.088C243.155 992.775 244.232 999.79 280.316 1131.31C282.47 1139.2 286.778 1155.42 290.01 1167.48C292.972 1179.54 296.742 1193.35 298.088 1198.17C300.781 1207.38 318.553 1274.89 322.592 1290.23C325.824 1304.04 346.289 1378.79 350.597 1393.26C352.752 1400.49 355.714 1410.8 357.06 1416.28C358.406 1421.76 368.639 1460.12 379.949 1501.77C391.528 1543.42 401.76 1581.78 403.376 1587.26C404.722 1592.74 407.954 1605.89 410.916 1616.85C413.608 1627.59 419.802 1651.26 424.38 1669.46C428.957 1687.43 433.804 1705.85 435.42 1710.01C439.19 1720.75 438.921 1732.59 434.343 1737.41C432.189 1739.82 424.649 1743.11 417.648 1745.08C395.298 1750.78 386.411 1768.1 396.644 1785.86C404.992 1800.1 403.376 1799.88 536.938 1799.88C670.769 1799.88 666.461 1800.32 672.385 1785.42C678.848 1769.63 669.154 1751.22 650.304 1743.11C630.108 1734.56 628.493 1733.03 627.146 1720.09C626.069 1709.35 628.493 1695.98 637.648 1663.98C639.264 1658.5 641.687 1649.95 643.034 1644.69C644.38 1639.65 646.534 1631.32 648.15 1626.06C654.074 1604.79 690.965 1464.94 703.083 1418.47C706.045 1406.63 713.046 1381.64 716.816 1369.15C718.97 1361.91 723.009 1347.01 725.971 1336.27C728.933 1325.31 733.511 1307.55 736.473 1296.81C739.435 1285.85 748.86 1251.87 757.208 1221.19C765.555 1190.5 786.559 1112.46 804.331 1048.01C843.915 902.682 865.996 822.015 869.497 809.082C871.112 803.602 873.266 795.711 874.344 791.546C875.421 787.381 877.844 778.832 879.46 772.913C881.076 766.776 884.307 754.939 886.461 746.609C888.885 738.06 892.654 723.593 894.809 714.167C896.694 704.741 899.117 696.192 899.925 695.096C900.733 694 902.618 688.082 904.233 681.505C905.849 675.148 908.273 666.38 909.35 662.215C912.85 649.721 917.159 633.938 922.544 612.895C925.237 601.934 930.354 582.864 933.585 570.15C936.816 557.436 940.586 542.749 941.663 537.269C943.01 531.789 949.203 507.457 955.935 483.126C973.977 416.488 980.709 412.104 993.095 459.452C994.98 466.685 997.404 473.481 998.75 474.577C999.827 475.892 1000.9 479.18 1000.9 482.249C1000.9 485.099 1001.98 490.579 1003.6 494.305C1006.02 500.881 1015.98 534.419 1027.56 575.63C1030.52 586.371 1038.06 612.675 1043.99 633.719C1049.91 654.762 1057.18 681.505 1060.15 692.904C1063.11 704.303 1067.95 723.154 1070.92 734.553C1074.15 745.951 1077.65 759.761 1079 765.241C1080.34 770.721 1083.84 784.531 1087.07 795.93C1090.04 807.328 1095.69 829.03 1099.46 844.155C1103.23 859.28 1112.39 894.133 1119.66 921.972C1143.08 1010.09 1149.01 1032.45 1162.74 1087.47C1170.01 1117.06 1179.17 1151.04 1183.21 1163.1C1186.98 1175.15 1191.28 1189.4 1192.63 1194.88C1194.25 1200.36 1196.4 1208.69 1197.75 1213.51C1199.09 1218.34 1201.52 1227.1 1202.86 1233.24C1204.21 1239.16 1206.63 1248.15 1207.98 1252.97C1209.33 1257.79 1211.75 1267.22 1213.63 1273.79C1215.52 1280.37 1217.94 1289.36 1219.02 1293.52C1220.1 1297.69 1223.6 1311.06 1226.83 1323.12C1229.79 1335.17 1237.33 1363.23 1243.25 1385.59C1255.64 1430.74 1266.41 1470.86 1270.72 1487.52C1272.07 1493.44 1274.49 1501.99 1275.57 1506.15C1276.65 1510.32 1279.07 1518.65 1280.68 1524.78C1282.3 1530.7 1286.07 1545.17 1289.3 1556.57C1292.53 1567.97 1296.03 1581.78 1297.38 1587.26C1298.73 1592.74 1300.88 1601.07 1302.23 1605.89C1303.57 1610.71 1306 1619.48 1307.34 1625.62C1310.57 1637.89 1320.54 1675.6 1329.69 1709.57C1335.62 1731.05 1335.62 1732.37 1331.31 1739.82C1327.81 1745.74 1323.23 1748.81 1312.19 1752.76C1303.84 1755.82 1295.23 1760.87 1291.72 1764.81C1283.38 1774.24 1281.49 1789.8 1287.42 1798.57C1296.3 1812.16 1291.99 1811.72 1429.06 1811.06C1505.8 1810.63 1556.16 1809.75 1559.12 1808.21C1564.77 1805.8 1571.77 1793.75 1571.77 1786.51C1571.77 1777.31 1562.62 1766.35 1544.85 1754.95C1534.88 1748.59 1525.19 1740.26 1523.3 1736.32C1519.26 1728.2 1520.88 1705.41 1527.61 1682.39C1530.04 1674.06 1532.73 1662.88 1534.08 1657.4C1535.15 1651.92 1544.58 1616.41 1555.08 1578.49C1565.58 1540.57 1575.54 1504.4 1577.16 1498.48C1578.78 1492.34 1581.2 1483.57 1582.55 1478.75C1583.89 1473.93 1587.66 1460.56 1590.62 1449.16C1593.86 1437.76 1597.36 1424.39 1598.7 1419.57C1600.05 1414.74 1607.86 1386.03 1615.94 1356C1624.01 1325.75 1635.32 1284.97 1640.71 1265.03C1646.1 1245.08 1650.94 1226.45 1651.21 1223.38C1651.48 1220.31 1652.83 1213.95 1654.71 1209.13C1658.75 1197.07 1661.44 1187.43 1675.45 1133.5C1682.18 1107.64 1691.6 1073.44 1696.18 1057.88C1703.72 1033.77 1704.8 1025.22 1705.07 1001.98C1705.07 970.635 1702.1 964.059 1683.26 953.099C1653.9 936.44 1585.78 938.413 1575.01 956.606C1569.89 965.375 1566.39 976.116 1566.39 983.788C1566.39 987.733 1565.31 992.775 1563.97 994.967C1562.62 996.94 1560.2 1004.17 1558.58 1010.75C1556.69 1017.33 1554.27 1026.97 1552.92 1032.01C1551.31 1037.27 1549.15 1045.82 1547.54 1051.3C1546.19 1056.78 1543.5 1065.77 1541.88 1071.47C1540.27 1077.39 1538.11 1085.94 1536.77 1090.76C1535.42 1095.58 1532.46 1105.88 1530.31 1113.78C1528.15 1121.67 1520.07 1150.16 1512.53 1177.34C1496.38 1236.09 1493.95 1243.98 1490.99 1254.07C1489.64 1258.23 1487.76 1264.59 1486.95 1268.31C1486.14 1271.82 1484.26 1278.4 1483.18 1282.56C1481.84 1286.73 1479.41 1295.71 1477.53 1302.29C1475.64 1308.87 1473.22 1317.85 1472.14 1322.02C1471.06 1326.18 1468.64 1335.17 1466.76 1341.75C1464.87 1348.32 1462.45 1357.31 1461.37 1361.48C1459.22 1369.37 1457.06 1377.26 1447.91 1411.67C1441.71 1435.35 1435.52 1445.65 1426.63 1446.53C1419.63 1447.4 1408.59 1438.2 1406.17 1429.21C1405.09 1425.92 1402.67 1421.98 1400.51 1420.66C1398.36 1418.91 1397.55 1416.72 1399.17 1414.74C1401.59 1411.02 1399.97 1402.25 1388.67 1359.28C1384.09 1341.75 1378.7 1320.05 1376.28 1311.06C1374.12 1302.07 1371.16 1290.67 1369.82 1285.85C1367.39 1278.18 1331.85 1143.15 1318.65 1091.86C1310.31 1059.41 1302.5 1030.92 1294.15 1001.32C1286.88 974.8 1264.26 893.256 1259.41 874.843C1258.07 870.678 1255.91 861.691 1254.03 855.115C1250.53 841.963 1247.56 831.222 1243.25 814.562C1241.91 808.425 1239.22 799.218 1237.87 793.738C1236.25 788.258 1233.83 779.928 1232.75 775.105C1231.41 770.283 1227.91 756.912 1224.94 745.513C1221.71 734.114 1216.87 715.701 1213.9 704.96C1194.25 631.088 1186.44 604.346 1184.01 601.934C1182.67 600.619 1182.13 598.646 1182.94 597.989C1184.55 596.893 1181.05 581.548 1173.24 553.052C1166.78 530.255 1165.16 523.898 1159.78 503.293C1156.82 491.236 1153.05 477.426 1151.7 472.604C1150.35 467.781 1146.58 453.972 1143.62 441.915C1140.66 429.859 1136.89 416.049 1135.54 411.227C1133.39 403.774 1114.81 333.848 1091.11 242.221C1087.61 228.849 1080.07 202.106 1074.69 183.035C1069.3 163.746 1063.11 141.825 1060.95 133.934C1058.53 124.946 1057.45 113.767 1058.53 103.464C1060.41 81.1056 1068.76 70.1454 1093.81 57.87C1104.31 52.8283 1114.81 46.0329 1117.23 42.5257C1126.39 30.6887 1121.54 15.7827 1105.65 6.57612C1097.31 1.75363 1095.96 1.75363 982.324 0.876816L867.612 0L855.494 5.04169Z" fill="white"/>
<path d="M114.171 309.296L14.8073 310.392L8.34463 316.53C-0.810829 325.298 -2.15722 332.093 2.95907 343.272C8.34463 354.233 12.3838 356.863 38.7731 364.974C83.204 378.783 85.6275 382.291 104.208 461.643C108.516 480.933 113.363 500.661 114.979 505.483C116.325 510.306 120.095 524.116 123.057 536.172C126.019 548.228 129.789 562.257 131.136 567.299C132.751 572.56 134.905 580.89 136.252 585.931C137.598 591.192 140.022 599.96 141.637 605.66C146.484 623.196 149.716 634.375 152.678 645.774C182.568 756.472 193.877 796.148 197.109 802.066C203.841 814.123 224.306 821.356 264.967 826.398C312.091 832.097 338.749 827.713 347.635 812.588C352.213 804.478 352.213 799.436 346.558 783.872C345.212 780.146 342.25 770.282 340.096 761.952C320.169 686.327 302.666 623.415 300.512 621.661C299.165 620.565 298.088 616.839 298.088 613.551C298.088 610.263 292.972 589.439 287.048 567.299C273.314 517.759 273.853 520.17 262.005 472.603C256.888 450.902 251.234 428.104 249.618 422.186C248.272 416.048 246.117 403.773 245.31 394.785C243.694 378.783 243.694 378.126 251.234 371.988C255.542 368.7 263.351 364.097 268.467 361.905C284.086 355.329 288.663 349.849 288.663 336.916C288.663 322.667 280.585 312.584 266.313 309.296C260.928 308.2 246.656 307.323 234.808 307.542C222.959 307.981 168.565 308.638 114.171 309.296Z" fill="white"/>
<path d="M1700.22 309.297C1678.68 312.365 1666.83 324.86 1670.06 341.52C1671.41 348.973 1674.91 354.014 1684.87 363.002C1712.07 387.552 1713.68 397.417 1698.6 453.971C1687.56 494.524 1681.91 516.664 1676.79 537.269C1673.83 548.667 1668.45 569.492 1664.94 583.302C1645.83 657.393 1635.86 695.096 1633.17 704.96C1631.55 710.878 1629.4 720.304 1628.32 725.784C1626.98 731.264 1622.13 750.335 1617.28 768.091C1607.05 806.451 1607.86 812.589 1623.74 823.111L1634.25 829.906H1670.87C1719.88 829.906 1737.92 824.645 1751.92 806.232C1757.85 798.56 1775.62 742.005 1789.89 686.328C1792.58 676.025 1797.16 657.831 1800.39 645.775C1803.35 633.719 1813.32 597.769 1822.2 565.765C1831.36 533.762 1844.55 485.537 1852.09 458.355C1859.36 431.174 1867.17 403.774 1869.6 397.417C1876.87 377.469 1895.99 364.098 1917.26 364.098C1922.37 364.098 1930.72 362.563 1935.84 360.81C1952 355.549 1959 336.478 1950.11 322.449C1942.57 310.393 1934.49 309.735 1816.82 308.858C1758.38 308.42 1705.87 308.639 1700.22 309.297Z" fill="white"/>
<path d="M52.7753 812.369C38.2343 818.726 35.5415 825.302 35.5415 852.922C35.5415 866.732 37.1571 895.886 38.7728 917.587C41.1963 946.522 41.4656 967.566 39.5806 996.501C33.6565 1083.96 33.118 1115.97 37.965 1131.31C49.2747 1166.82 76.4718 1182.82 106.092 1171.43C119.826 1166.16 131.135 1152.57 131.135 1141.39C131.135 1111.14 147.831 1058.54 168.026 1023.9C197.378 973.703 235.615 945.864 299.165 928.547C347.096 915.395 375.101 913.641 522.127 914.08C654.343 914.518 654.612 914.518 662.691 901.366C664.845 898.078 668.345 886.679 669.961 876.377C673.462 857.744 673.462 857.306 667.268 852.045L660.806 846.565L424.918 846.346C265.236 846.346 183.914 845.469 172.873 843.935C148.908 840.427 119.826 831.878 101.515 823.11C87.2429 816.315 65.9699 808.862 61.3922 809.081C60.5844 809.3 56.5452 810.616 52.7753 812.369Z" fill="white"/>
<path d="M1885.48 811.712C1881.18 813.027 1872.56 816.754 1866.63 820.042C1846.44 831.002 1823.01 838.017 1787.74 843.935C1777.77 845.689 1698.6 846.346 1538.92 846.346C1304.11 846.346 1297.38 846.566 1290.92 853.799C1287.69 857.526 1291.72 887.776 1297.11 897.859C1306 914.738 1304.38 914.519 1440.37 914.08C1556.43 913.861 1584.16 914.519 1614.86 918.903C1666.29 926.137 1714.49 944.111 1742.77 966.251C1787.47 1001.1 1820.05 1062.26 1828.13 1126.49C1830.28 1145.34 1832.44 1153.01 1836.74 1158.27C1855.86 1181.07 1891.68 1180.63 1909.99 1157.4C1913.49 1152.79 1918.87 1141.39 1922.11 1131.97C1928.3 1113.56 1928.3 1100.62 1922.11 1000.89C1920.22 970.416 1920.22 944.988 1922.11 917.588C1928.03 837.578 1928.03 835.825 1923.45 828.152C1917.8 818.727 1913.49 814.781 1906.49 811.712C1899.49 808.643 1896.25 808.643 1885.48 811.712Z" fill="white"/>
<path d="M893.462 854.019C882.422 862.349 881.883 863.664 868.958 909.258C863.034 930.083 863.572 937.535 871.65 947.18C884.307 962.525 893.193 985.541 898.309 1015.13C907.464 1069.93 908.003 1094.05 908.003 1478.75C908.003 1840.22 907.734 1860.82 903.156 1874.19C896.963 1892.17 894.001 1895.68 867.342 1918.47C842.299 1939.96 837.183 1948.72 842.03 1961.66C846.069 1971.52 856.84 1981.38 867.611 1985.11C873.535 1987.08 905.041 1987.52 986.632 1987.3C1109.42 1986.86 1106.19 1987.3 1115.08 1972.4C1117.5 1968.23 1119.39 1959.68 1119.39 1953.33V1941.93L1096.77 1924.17C1082.5 1912.77 1071.45 1901.81 1066.88 1894.58C1051.8 1869.59 1052.07 1882.09 1052.07 1446.97C1052.07 1201.46 1053.14 1038.37 1054.76 1025C1058.8 990.144 1063.11 979.842 1088.42 943.016C1097.31 930.083 1097.04 918.684 1087.34 890.845C1078.19 864.76 1072.8 856.43 1061.22 850.511C1053.41 846.566 1047.22 846.347 978.285 846.347H903.964L893.462 854.019Z" fill="white"/>
</g>
<path id="WAR TRADE" d="M400.205 2192.41L362.531 2058.06H344.522L386.129 2204H414.074L446.366 2076.07L478.865 2204H506.603L548.003 2058.06H530.201L492.527 2192.41L459.407 2058.06H434.153L400.205 2192.41ZM565.617 2204L577.623 2169.64H650.073L662.493 2204H680.916L626.475 2058.06H601.635L547.194 2204H565.617ZM614.262 2073.38L645.519 2156.18H582.798L614.262 2073.38ZM770.361 2146.87L804.93 2204H825.009L787.749 2144.38C808.863 2139.83 823.767 2122.86 823.767 2102.98C823.767 2076.69 801.825 2058.06 770.982 2058.06H706.605V2204H723.786V2146.87H770.361ZM769.74 2073.38C791.268 2073.38 806.586 2084.56 806.586 2102.98C806.586 2119.75 791.268 2131.55 769.74 2131.55H723.786V2073.38H769.74ZM972.204 2073.38H1021.06V2058.06H906.171V2073.38H955.023V2204H972.204V2073.38ZM1108.76 2146.87L1143.33 2204H1163.41L1126.15 2144.38C1147.26 2139.83 1162.16 2122.86 1162.16 2102.98C1162.16 2076.69 1140.22 2058.06 1109.38 2058.06H1045V2204H1062.18V2146.87H1108.76ZM1108.14 2073.38C1129.66 2073.38 1144.98 2084.56 1144.98 2102.98C1144.98 2119.75 1129.66 2131.55 1108.14 2131.55H1062.18V2073.38H1108.14ZM1200.97 2204L1212.98 2169.64H1285.43L1297.85 2204H1316.27L1261.83 2058.06H1236.99L1182.55 2204H1200.97ZM1249.61 2073.38L1280.87 2156.18H1218.15L1249.61 2073.38ZM1386.46 2204C1437.38 2204 1471.33 2174.81 1471.33 2131.14C1471.33 2087.25 1437.38 2058.06 1386.46 2058.06H1341.96V2204H1386.46ZM1454.36 2131.14C1454.36 2166.33 1427.03 2188.68 1386.46 2188.68H1359.14V2073.38H1386.46C1427.03 2073.38 1454.36 2095.74 1454.36 2131.14ZM1594.96 2121.2H1520.44V2073.38H1603.24V2058.06H1503.68V2204H1605.31V2188.68H1520.44V2135.69H1594.96V2121.2Z" fill="white"/>
</g>
</svg>
