<svg width="5320" height="247" viewBox="0 0 5320 247" fill="none" xmlns="http://www.w3.org/2000/svg">
<g id="waves">
<g id="backWave">
<path fill-rule="evenodd" clip-rule="evenodd" d="M2660 98.7L2770.83 119.262C2881.67 139.825 3103.33 180.95 3325 180.95C3546.67 180.95 3768.33 139.825 3990 119.262C4211.67 98.7 4433.33 98.7 4655 82.25C4876.67 65.8 5098.33 32.9 5209.17 16.45L5320 0V246.75H5209.17C5098.33 246.75 4876.67 246.75 4655 246.75C4433.33 246.75 4211.67 246.75 3990 246.75C3768.33 246.75 3546.67 246.75 3325 246.75C3103.33 246.75 2881.67 246.75 2770.83 246.75H2660V98.7Z" fill="#FF7A7A"/>
<path fill-rule="evenodd" clip-rule="evenodd" d="M2660 98.7L2549.17 119.262C2438.33 139.825 2216.67 180.95 1995 180.95C1773.33 180.95 1551.67 139.825 1330 119.262C1108.33 98.7 886.667 98.7 665 82.25C443.333 65.8 221.667 32.9 110.833 16.45L-6.10352e-05 0V246.75H110.833C221.667 246.75 443.333 246.75 665 246.75C886.667 246.75 1108.33 246.75 1330 246.75C1551.67 246.75 1773.33 246.75 1995 246.75C2216.67 246.75 2438.33 246.75 2549.17 246.75H2660V98.7Z" fill="#FF7A7A"/>
</g>
<g id="midWave">
<path fill-rule="evenodd" clip-rule="evenodd" d="M2660 74.1887L2770.83 70.0801C2881.67 65.9715 3103.33 57.7543 3325 53.6457C3546.67 49.5371 3768.33 49.5371 3990 70.0801C4211.67 90.6232 4433.33 131.709 4655 131.709C4876.67 131.709 5098.33 90.6232 5209.17 70.0801L5320 49.5371V246.75H5209.17C5098.33 246.75 4876.67 246.75 4655 246.75C4433.33 246.75 4211.67 246.75 3990 246.75C3768.33 246.75 3546.67 246.75 3325 246.75C3103.33 246.75 2881.67 246.75 2770.83 246.75H2660V74.1887Z" fill="#0099FF" fill-opacity="0.7"/>
<path fill-rule="evenodd" clip-rule="evenodd" d="M2660 74.1887L2549.17 70.0801C2438.33 65.9715 2216.67 57.7543 1995 53.6457C1773.33 49.5371 1551.67 49.5371 1330 70.0801C1108.33 90.6232 886.667 131.709 665 131.709C443.333 131.709 221.667 90.6232 110.833 70.0801L-6.10352e-05 49.5371V246.75H110.833C221.667 246.75 443.333 246.75 665 246.75C886.667 246.75 1108.33 246.75 1330 246.75C1551.67 246.75 1773.33 246.75 1995 246.75C2216.67 246.75 2438.33 246.75 2549.17 246.75H2660V74.1887Z" fill="#0099FF" fill-opacity="0.7"/>
</g>
<g id="frontWave">
<path fill-rule="evenodd" clip-rule="evenodd" d="M2660 0L2770.83 24.675C2881.67 49.35 3103.33 98.7 3325 131.6C3546.67 164.5 3768.33 180.95 3990 189.175C4211.67 197.4 4433.33 197.4 4655 176.837C4876.67 156.275 5098.33 115.15 5209.17 94.5875L5320 74.025V246.75H5209.17C5098.33 246.75 4876.67 246.75 4655 246.75C4433.33 246.75 4211.67 246.75 3990 246.75C3768.33 246.75 3546.67 246.75 3325 246.75C3103.33 246.75 2881.67 246.75 2770.83 246.75H2660V0Z" fill="#65FF90" fill-opacity="0.5"/>
<path fill-rule="evenodd" clip-rule="evenodd" d="M2660 0L2549.17 24.675C2438.33 49.35 2216.67 98.7 1995 131.6C1773.33 164.5 1551.67 180.95 1330 189.175C1108.33 197.4 886.667 197.4 665 176.837C443.333 156.275 221.667 115.15 110.833 94.5875L-6.10352e-05 74.025V246.75H110.833C221.667 246.75 443.333 246.75 665 246.75C886.667 246.75 1108.33 246.75 1330 246.75C1551.67 246.75 1773.33 246.75 1995 246.75C2216.67 246.75 2438.33 246.75 2549.17 246.75H2660V0Z" fill="#65FF90" fill-opacity="0.5"/>
</g>
</g>
</svg>
